<?xml version="1.0" encoding="UTF-8"?> <svg xmlns="http://www.w3.org/2000/svg" width="120" height="120" viewBox="0 0 120 120" fill="none"> <rect width="120" height="120" fill="white"></rect> <path d="M33.8867 33.1388L43.9401 24.0586" stroke="#EC6A06" stroke-width="2" stroke-miterlimit="10" stroke-linejoin="round"></path> <path d="M67.8267 65.3179V16.4121H10V91.2443H38.9134" stroke="#5B5B5B" stroke-width="2" stroke-miterlimit="10" stroke-linejoin="round"></path> <path d="M72.21 20.6729V61.4144" stroke="#EC6A06" stroke-width="2" stroke-miterlimit="10" stroke-linejoin="round"></path> <path d="M76.9551 23.3418V57.5918" stroke="#EC6A06" stroke-width="2" stroke-miterlimit="10" stroke-linejoin="round"></path> <path d="M81.6602 25.9697V52.852" stroke="#EC6A06" stroke-width="2" stroke-miterlimit="10" stroke-linejoin="round"></path> <path d="M86.4053 28.5986V48.9893" stroke="#EC6A06" stroke-width="2" stroke-miterlimit="10" stroke-linejoin="round"></path> <path d="M91.1504 31.2266V44.2893" stroke="#EC6A06" stroke-width="2" stroke-miterlimit="10" stroke-linejoin="round"></path> <path d="M95.8555 33.8955V40.4667" stroke="#EC6A06" stroke-width="2" stroke-miterlimit="10" stroke-linejoin="round"></path> <path d="M48.9668 15.2968C48.9668 12.3497 51.3796 10 54.3152 10C57.2507 10 59.6635 12.3895 59.6635 15.2968C59.6635 18.2041 57.2507 20.5936 54.3152 20.5936" stroke="#EC6A06" stroke-width="2" stroke-miterlimit="10" stroke-linejoin="round"></path> <path d="M16.1523 15.2968C16.1523 12.3497 18.5651 10 21.5007 10C24.4363 10 26.8491 12.3895 26.8491 15.2968C26.8491 18.2041 24.4363 20.5936 21.5007 20.5936" stroke="#EC6A06" stroke-width="2" stroke-miterlimit="10" stroke-linejoin="round"></path> <path d="M25.2808 38.7139H17.7207V46.2011H25.2808V38.7139Z" stroke="#EC6A06" stroke-width="2" stroke-miterlimit="10" stroke-linejoin="round"></path> <path d="M42.6929 38.7139H35.1328V46.2011H42.6929V38.7139Z" stroke="#EC6A06" stroke-width="2" stroke-miterlimit="10" stroke-linejoin="round"></path> <path d="M60.106 38.7139H52.5459V46.2011H60.106V38.7139Z" stroke="#EC6A06" stroke-width="2" stroke-miterlimit="10" stroke-linejoin="round"></path> <path d="M25.2808 51.8965H17.7207V59.3837H25.2808V51.8965Z" stroke="#EC6A06" stroke-width="2" stroke-miterlimit="10" stroke-linejoin="round"></path> <path d="M42.6929 51.8965H35.1328V59.3837H42.6929V51.8965Z" stroke="#EC6A06" stroke-width="2" stroke-miterlimit="10" stroke-linejoin="round"></path> <path d="M60.106 51.8965H52.5459V59.3837H60.106V51.8965Z" stroke="#EC6A06" stroke-width="2" stroke-miterlimit="10" stroke-linejoin="round"></path> <path d="M25.2808 65.0791H17.7207V72.5663H25.2808V65.0791Z" stroke="#EC6A06" stroke-width="2" stroke-miterlimit="10" stroke-linejoin="round"></path> <path d="M42.6929 65.0791H35.1328V72.5663H42.6929V65.0791Z" stroke="#EC6A06" stroke-width="2" stroke-miterlimit="10" stroke-linejoin="round"></path> <path d="M59.6636 72.6061H52.5459V65.0791H60.106V72.3672" stroke="#EC6A06" stroke-width="2" stroke-miterlimit="10" stroke-linejoin="round"></path> <path d="M48.2653 82.6875H18.291" stroke="#EC6A06" stroke-width="2" stroke-dasharray="2 2"></path> <path d="M18.5762 110L110.001 26.9629" stroke="#EC6A06" stroke-width="2" stroke-miterlimit="10"></path> </svg> 