<?xml version="1.0" encoding="UTF-8"?> <svg xmlns="http://www.w3.org/2000/svg" width="120" height="120" viewBox="0 0 120 120" fill="none"> <g clip-path="url(#clip0)"> <rect width="120" height="120" fill="white"></rect> <path d="M31.1689 108L120 26.8291" stroke="#EC6A06" stroke-width="2" stroke-miterlimit="10"></path> <path d="M27.4033 35.3579C33.2149 21.6526 46.7509 12 62.5673 12C81.8045 12 97.6944 26.2211 100.343 44.7527" stroke="#EC6A06" stroke-width="2" stroke-miterlimit="10"></path> <path d="M53.7027 87.4162C41.5277 84.5057 31.5965 75.7741 27.0723 64.2793" stroke="#EC6A06" stroke-width="2" stroke-miterlimit="10"></path> <path d="M34.9434 42.2475C38.4009 30.2369 49.4724 21.4316 62.5669 21.4316C78.4569 21.4316 91.3307 34.3264 91.3307 50.2422C91.3307 51.1633 91.294 52.0843 91.1836 53.0054" stroke="#EC6A06" stroke-width="3" stroke-miterlimit="10" stroke-dasharray="2 2"></path> <path d="M62.6037 79.0533C49.1413 79.0533 37.8492 69.8059 34.7227 57.3164" stroke="#EC6A06" stroke-width="3" stroke-miterlimit="10" stroke-dasharray="2 2"></path> <path d="M50.0244 56.9844H45.6841L42.4104 55.5107L39.4679 56.9844H33.4355" stroke="#5B5B5B" stroke-width="2" stroke-miterlimit="10"></path> <path d="M62.3828 56.9844H58.0425L54.7688 55.5107L51.8263 56.9844H45.7939" stroke="#5B5B5B" stroke-width="2" stroke-miterlimit="10"></path> <path d="M33.1045 42.7266H62.3833" stroke="#5B5B5B" stroke-width="2" stroke-miterlimit="10"></path> <path d="M17.3981 67.6681C27.0067 67.6681 34.7961 59.8661 34.7961 50.2418C34.7961 40.6175 27.0067 32.8154 17.3981 32.8154C7.78938 32.8154 0 40.6175 0 50.2418C0 59.8661 7.78938 67.6681 17.3981 67.6681Z" stroke="#5B5B5B" stroke-width="2" stroke-miterlimit="10"></path> <path d="M17.398 60.6315C11.66 60.6315 7.02539 55.9894 7.02539 50.242C7.02539 44.4947 11.66 39.8525 17.398 39.8525V60.6315Z" stroke="#5B5B5B" stroke-width="2" stroke-miterlimit="10"></path> <path d="M41.5645 48.4365H62.3833" stroke="#5B5B5B" stroke-width="2" stroke-miterlimit="10"></path> <path d="M63.1172 33.0732L63.2077 68.7005" stroke="#5B5B5B" stroke-width="2" stroke-miterlimit="10"></path> </g> <defs> <clipPath id="clip0"> <rect width="120" height="120" fill="white"></rect> </clipPath> </defs> </svg> 