<?xml version="1.0" encoding="UTF-8"?> <svg xmlns="http://www.w3.org/2000/svg" width="120" height="120" viewBox="0 0 120 120" fill="none"> <g clip-path="url(#clip0)"> <rect width="120" height="120" fill="white"></rect> <path d="M29.1338 112.665L118.257 31.4492" stroke="#EC6A06" stroke-width="2" stroke-miterlimit="10"></path> <path d="M76.0755 15.7324H18.9541V23.5913H76.0755V15.7324Z" stroke="#EC6A06" stroke-width="2" stroke-miterlimit="10" stroke-linejoin="round"></path> <path d="M73.9045 23.7568C73.9045 23.7568 77.606 60.8983 59.8454 73.6687H36.1754C18.4148 60.8658 22.1163 23.7568 22.1163 23.7568" stroke="#EC6A06" stroke-width="2" stroke-miterlimit="10" stroke-linejoin="round"></path> <path d="M66.9887 30.3857C66.9887 30.3857 69.8135 58.4937 56.3388 68.1446H45.7539" stroke="#EC6A06" stroke-width="2" stroke-miterlimit="10" stroke-linejoin="round" stroke-dasharray="2 2"></path> <path d="M59.7479 73.6689C59.7479 80.1679 54.4879 85.432 47.994 85.432C41.5002 85.432 36.2402 80.1679 36.2402 73.6689" stroke="#EC6A06" stroke-width="2" stroke-miterlimit="10" stroke-linejoin="round"></path> <path d="M21.7916 26.1611H12.473C8.28446 26.1611 4.97261 29.768 5.36224 33.9599C6.46619 45.3655 10.9794 65.2523 28.8049 65.2523" stroke="#EC6A06" stroke-width="2" stroke-miterlimit="10" stroke-linejoin="round"></path> <path d="M21.7913 30.3857H14.3883C12.6025 30.3857 11.1739 31.8805 11.2713 33.6677C11.6285 41.5964 14.5507 60.3783 26.5318 60.3783" stroke="#EC6A06" stroke-width="2" stroke-miterlimit="10" stroke-linejoin="round"></path> <path d="M74.2611 26.1611H83.6122C87.8007 26.1611 91.1126 29.768 90.723 33.9599C89.619 45.3655 85.1058 65.2523 67.2803 65.2523" stroke="#EC6A06" stroke-width="2" stroke-miterlimit="10" stroke-linejoin="round"></path> <path d="M74.2288 30.3857H81.6317C83.4175 30.3857 84.8462 31.8805 84.7488 33.6677C84.3916 41.5964 81.4694 60.3783 69.4883 60.3783" stroke="#EC6A06" stroke-width="2" stroke-miterlimit="10" stroke-linejoin="round"></path> <path d="M42.8965 84.2295V99.7619" stroke="#EC6A06" stroke-width="2" stroke-miterlimit="10" stroke-linejoin="round"></path> <path d="M53.5459 84.2295V90.2735" stroke="#EC6A06" stroke-width="2" stroke-miterlimit="10" stroke-linejoin="round"></path> <path d="M48.1846 52.3415L40.719 55.4546L41.3411 47.3605L36.0713 41.1709L43.9395 39.2664L48.1846 32.3809L52.4298 39.2664L60.2979 41.1709L55.0647 47.3605L55.6868 55.4546L48.1846 52.3415Z" stroke="#5B5B5B" stroke-width="2" stroke-miterlimit="10" stroke-linejoin="round"></path> <path d="M80.5117 7.18457L80.5117 15.7781" stroke="#5B5B5B" stroke-width="2" stroke-miterlimit="10" stroke-linejoin="round"></path> <path d="M84.9888 11.4805L76.0347 11.4805" stroke="#5B5B5B" stroke-width="2" stroke-miterlimit="10" stroke-linejoin="round"></path> <path d="M6.73438 56.4082L6.73438 65.0017" stroke="#5B5B5B" stroke-width="2" stroke-miterlimit="10" stroke-linejoin="round"></path> <path d="M11.2114 60.704L2.25732 60.704" stroke="#5B5B5B" stroke-width="2" stroke-miterlimit="10" stroke-linejoin="round"></path> </g> <defs> <clipPath id="clip0"> <rect width="120" height="120" fill="white"></rect> </clipPath> </defs> </svg> 